<svg xmlns="http://www.w3.org/2000/svg" viewBox="0 0 441.25 96"><defs><style>.a{fill:#fff;}.b{fill:#1a477f;}.c{fill:#3c91e6;}.d{fill:#2e7edf;}.e{fill:#131516;}</style></defs><path class="a" d="M42,8,7,28V68L42,88,77,68V28L42,8Z"/><path class="b" d="M42,11.09,74.3,29.54V66.46L42,84.91,9.7,66.46V29.54L42,11.09M42,0,0,24V72L42,96,84,72V24L42,0Z"/><path class="c" d="M42,24,21,36V60L42,72,63,60V36L42,24Z"/><path class="d" d="M63,36V60L42,72V46.75Z"/><path class="e" d="M108.27,28.11h14.86c8.59,0,16,2.94,16,12.89,0,9.63-7.37,13.62-16,13.62h-4.3V68H108.27Zm14.12,18.17c4.17,0,6.38-1.85,6.38-5.28s-2.21-4.55-6.38-4.55h-3.56v9.83Zm6-1.42L141.3,68H129.51l-8.29-16.14Z"/><path class="e" d="M142.15,52.66c0-10.07,7.85-16.08,16.08-16.08,9.7,0,14.61,6.63,14.61,14.85a28.17,28.17,0,0,1-.43,4.42H150.13V49h15l-1.47,1.84c0-4-1.6-6.26-5-6.26-4.06,0-6.26,2.57-6.26,8.1,0,5.77,2.82,8.1,8.47,8.1a17.1,17.1,0,0,0,7.36-1.84l3.44,6.26a24.37,24.37,0,0,1-12.28,3.56C149.63,68.74,142.15,62.85,142.15,52.66Z"/><path class="e" d="M180.94,55.36V33.51h-9.21V25.28H191.5V55.73c0,3.56,2.45,4.54,4.6,4.54a13.09,13.09,0,0,0,4.42-.86l2.27,7.74a28.89,28.89,0,0,1-9.51,1.59C185.12,68.74,180.94,63.34,180.94,55.36Z"/><path class="e" d="M207.16,59.29c0-6.88,5.4-10.44,19.4-11.17-.37-2.21-2.46-3.2-5.9-3.2-2.57,0-5.15.86-8.83,2.58l-3.69-6.87a29.76,29.76,0,0,1,14.61-4.05c8.72,0,14.36,4.29,14.36,14.36V68h-8.59l-.74-3.19h-.24c-3,2.21-6.63,3.93-10.44,3.93C210.72,68.74,207.16,64.32,207.16,59.29Zm19.4-1V54.38c-7.49.24-9.33,2-9.33,4,0,1.41,1.1,2.21,3.31,2.21A10,10,0,0,0,226.56,58.31Z"/><path class="e" d="M248,55V45.54h-7.37V37.68l7.86-.37,1.35-9.2h8.72v9.2h12.15v8.23H258.56v9.27c0,4.36,2,5.71,5.95,5.71a17.24,17.24,0,0,0,5.59-1l1.84,7.62a37.23,37.23,0,0,1-10.19,1.59C251.68,68.74,248,63.22,248,55Z"/><path class="e" d="M288.89,45.54H277.23V37.31h22.22V68H288.89ZM287.05,27c0-3.68,2.83-6.26,6.76-6.26s6.75,2.58,6.75,6.26-2.83,6.14-6.75,6.14S287.05,30.68,287.05,27Z"/><path class="e" d="M305.87,37.31h10.56l4,13.38c.92,3.07,1.65,6.27,2.51,9.58h.25c.86-3.31,1.6-6.51,2.52-9.58l4-13.38h10.06L329.07,68H316.92Z"/><path class="e" d="M341.36,52.66c0-10.07,7.85-16.08,16.08-16.08,9.7,0,14.61,6.63,14.61,14.85a28.17,28.17,0,0,1-.43,4.42H349.34V49h15l-1.47,1.84c0-4-1.6-6.26-5-6.26-4.05,0-6.26,2.57-6.26,8.1,0,5.77,2.82,8.1,8.47,8.1a17.1,17.1,0,0,0,7.36-1.84l3.44,6.26a24.37,24.37,0,0,1-12.28,3.56C348.84,68.74,341.36,62.85,341.36,52.66Z"/><path class="e" d="M376.89,48.36c0-13.38,8.71-21,19.52-21a18,18,0,0,1,12.27,5.16L402.91,39a9.41,9.41,0,0,0-6.5-2.58c-4.91,0-8.72,4.3-8.72,11.54,0,7.49,3.81,11.67,9.21,11.67a9,9,0,0,0,6.5-3.19l5.77,6.38a16.88,16.88,0,0,1-13.38,5.89C385.85,68.74,376.89,62,376.89,48.36Z"/><path class="e" d="M412.52,59.17h9.09V37h-9.09V28.11h28.73V37h-9.09V59.17h9.09V68H412.52Z"/></svg>